<?xml version="1.0" encoding="utf-8"?>
<!-- Generator: Adobe Illustrator 16.0.4, SVG Export Plug-In . SVG Version: 6.00 Build 0)  -->
<!DOCTYPE svg PUBLIC "-//W3C//DTD SVG 1.1//EN" "http://www.w3.org/Graphics/SVG/1.1/DTD/svg11.dtd">
<svg version="1.1" id="Layer_1" xmlns="http://www.w3.org/2000/svg" xmlns:xlink="http://www.w3.org/1999/xlink" x="0px" y="0px"
	 width="79.5px" height="79.2px" viewBox="0 0 79.5 79.2" enable-background="new 0 0 79.5 79.2" xml:space="preserve">
<path id="Tick" fill="#006838" d="M27.9,57C39.2,40.2,50,24.3,60.7,8.3c1-1.5,1.9-3.1,3.1-4.5c3.2-4,7.5-4.9,11.4-2.3
	c3.7,2.4,4.9,7.2,2.2,11.4c-5.1,8-10.5,15.8-15.8,23.6c-8.2,12.1-16.3,24.3-24.5,36.3c-4.6,6.7-9.3,7.1-15,1.3
	C15.8,67.9,9.6,61.7,3.4,55.4c-4.1-4.2-4.4-8.7-1-12.3c3.3-3.4,8.5-3.3,12.4,0.6C19.1,47.8,23.2,52.2,27.9,57z"/>
</svg>
