<?xml version="1.0" encoding="utf-8"?>
<!-- Generator: Adobe Illustrator 16.0.4, SVG Export Plug-In . SVG Version: 6.00 Build 0)  -->
<!DOCTYPE svg PUBLIC "-//W3C//DTD SVG 1.1//EN" "http://www.w3.org/Graphics/SVG/1.1/DTD/svg11.dtd">
<svg version="1.1" id="Layer_1" xmlns="http://www.w3.org/2000/svg" xmlns:xlink="http://www.w3.org/1999/xlink" x="0px" y="0px"
	 width="79.5px" height="79.2px" viewBox="0 0 79.5 79.2" enable-background="new 0 0 79.5 79.2" xml:space="preserve">
<path id="Cross" fill="#BE1E2D" d="M67.4,57.6c-6-6.2-12.1-12.3-18.2-18.6c6.1-6.2,12.1-12.4,18.2-18.6c1.3-1.3,2.6-2.5,3.8-3.9
	c3.3-3.9,3.2-8.4,0-11.7c-3.2-3.2-8-3.3-11.6,0.2c-6.8,6.6-13.3,13.5-19.9,20.2c-0.6,0.6-1.2,1.2-1.7,1.8c-0.6-0.6-1.2-1.2-1.7-1.8
	c-6.6-6.8-13.1-13.6-19.9-20.2C12.7,1.6,7.8,1.8,4.7,4.9c-3.3,3.3-3.3,7.7,0,11.7c1.2,1.4,2.5,2.6,3.8,3.9
	c6,6.2,12.1,12.3,18.2,18.6c-6.1,6.2-12.1,12.4-18.2,18.6c-1.3,1.3-2.6,2.5-3.8,3.9c-3.3,3.9-3.2,8.4,0,11.7c3.2,3.2,8,3.3,11.6-0.2
	c6.8-6.6,13.3-13.5,19.9-20.2c0.6-0.6,1.2-1.2,1.7-1.8c0.6,0.6,1.2,1.2,1.7,1.8c6.6,6.8,13.1,13.6,19.9,20.2
	c3.6,3.5,8.5,3.3,11.6,0.2c3.3-3.3,3.3-7.7,0-11.7C70.1,60.2,68.7,59,67.4,57.6z"/>
</svg>
